<?xml version="1.0" encoding="UTF-8" standalone="no"?>
<!-- Created with Inkscape (http://www.inkscape.org/) -->
<svg xmlns:dc="http://purl.org/dc/elements/1.1/" xmlns:cc="http://creativecommons.org/ns#" xmlns:rdf="http://www.w3.org/1999/02/22-rdf-syntax-ns#" xmlns:svg="http://www.w3.org/2000/svg" xmlns="http://www.w3.org/2000/svg" version="1.1" width="300" height="185.0024" id="svg2" xml:space="preserve"><metadata id="metadata8"><rdf:RDF><cc:Work rdf:about=""><dc:format>image/svg+xml</dc:format><dc:type rdf:resource="http://purl.org/dc/dcmitype/StillImage"/><dc:title/></cc:Work></rdf:RDF></metadata><defs id="defs6"><clipPath id="clipPath20"><path d="M 0,0 0,595 839,595 839,0 0,0 z" id="path22"/></clipPath><clipPath id="clipPath292"><path d="m 175.209,416.608 c 10.46,-25.54 34.158,-42.945 57.062,-53.093 l 2.324,3.515 1.672,3.968 -0.255,0.142 -2.607,4.903 0.311,1.248 -0.396,-0.596 -20.211,12.473 -1.389,-0.851 c -7.285,4.592 -26.844,22.933 -32.854,42.463 -0.198,-0.907 -0.397,-1.842 -0.623,-2.778 -0.936,-4.28 -1.899,-8.163 -2.977,-11.933" id="path294"/></clipPath><clipPath id="clipPath3200"><path d="M 0,0 0,595 839,595 839,0 0,0 z" id="path3202"/></clipPath><clipPath id="clipPath3300"><path d="m 662.712,89.2063 37.927,27.5807 -25.795,15.392 -23.953,-36.1412" id="path3302"/></clipPath><clipPath id="clipPath5072"><path d="M 0,0 0,595 839,595 839,0 0,0 z" id="path5074"/></clipPath><clipPath id="clipPath5084"><path d="m 36.3684,50.6267 16.0156,0 0,-7.625 -16.0156,0 0,7.625" id="path5086"/></clipPath><clipPath id="clipPath5400"><path d="M 0,0 0,595 839,595 839,0 0,0 z" id="path5402"/></clipPath><clipPath id="clipPath6324"><path d="m 494.05,159.647 7.767,12.728 17.603,-10.772 -7.738,-12.784 -17.632,10.828" id="path6326"/></clipPath><clipPath id="clipPath7164"><path d="M 0,0 0,595 839,595 839,0 0,0 z" id="path7166"/></clipPath><clipPath id="clipPath7182"><path d="m 609.902,160.441 -5.13,-7.852 7.285,-4.507 5.329,8.107 -7.484,4.252" id="path7184"/></clipPath><clipPath id="clipPath7470"><path d="M 0,0 0,595 839,595 839,0 0,0 z" id="path7472"/></clipPath><clipPath id="clipPath7498"><path d="m 690.973,236.636 3.827,6.321 8.078,-4.847 -3.883,-6.463 -7.937,5.074" id="path7500"/></clipPath><clipPath id="clipPath7740"><path d="M 0,0 0,595 839,595 839,0 0,0 z" id="path7742"/></clipPath><clipPath id="clipPath7798"><path d="m 56.9763,110.579 16.0156,0 0,-7.625 -16.0156,0 0,7.625" id="path7800"/></clipPath><clipPath id="clipPath8070"><path d="M 0,0 0,595 839,595 839,0 0,0 z" id="path8072"/></clipPath><clipPath id="clipPath10522"><path d="m 239.726,357.817 -13.861,-23.414 3.996,-2.494 1.871,2.891 -2.438,1.304 12.558,20.551 -2.863,1.785" id="path10524"/></clipPath><clipPath id="clipPath11250"><path d="m 241.795,356.683 7.994,11.792 14.485,-8.9 11.026,17.036 -21.94,14.031 -13.492,-21.826 -3.997,-7.143 5.584,-5.755" id="path11252"/></clipPath><clipPath id="clipPath13562"><path d="M 0,0 0,595 839,595 839,0 0,0 z" id="path13564"/></clipPath><clipPath id="clipPath13608"><path d="m 313.058,329.669 21.401,-14.088 1.304,1.984 -19.162,12.558 5.216,8.22 -2.296,1.332 -6.463,-10.006" id="path13610"/></clipPath><clipPath id="clipPath14540"><path d="m 334.8,318.246 -19.587,-30.388 1.87,-1.077 19.758,30.076 -2.041,1.389" id="path14542"/></clipPath><clipPath id="clipPath15708"><path d="m 317.112,286.809 -4.933,3.232 2.155,3.231 4.705,-3.345 -2.041,-3.117" id="path15710"/></clipPath><clipPath id="clipPath15800"><path d="m 297.354,304.101 -9.779,-14.57 1.956,-1.304 9.751,14.541 -1.928,1.333" id="path15802"/></clipPath><clipPath id="clipPath16160"><path d="m 290.268,289.361 -5.046,3.118 -1.701,-2.778 5.017,-3.118 1.729,2.778" id="path16162"/></clipPath><clipPath id="clipPath16238"><path d="m 267.562,303.902 -6.888,-10.544 1.785,-1.134 6.832,10.488 -1.729,1.19" id="path16240"/></clipPath><clipPath id="clipPath16444"><path d="m 259.427,297.609 4.507,-3.174 -1.814,-2.353 -4.45,2.977 1.757,2.551" id="path16446"/></clipPath><clipPath id="clipPath16522"><path d="m 249.477,323.66 -10.46,-16.923 -1.984,1.219 10.432,16.894 2.012,-1.19" id="path16524"/></clipPath><clipPath id="clipPath16914"><path d="m 238.479,310.394 4.96,-2.665 -1.956,-2.948 -4.677,2.778 1.673,2.834" id="path16916"/></clipPath><clipPath id="clipPath17006"><path d="M 0,0 0,595 839,595 839,0 0,0 z" id="path17008"/></clipPath><clipPath id="clipPath17022"><path d="m 209.934,389.65 16.299,26.051 2.041,-1.276 -16.753,-26.078 -1.644,1.218" id="path17024"/></clipPath><clipPath id="clipPath17930"><path d="m 212.457,427.975 -2.75,1.445 -2.806,-4.337 18,-11.65 1.417,2.182 -15.562,9.61 1.559,2.608" id="path17932"/></clipPath><clipPath id="clipPath18470"><path d="m 233.178,443.82 -9.893,5.925 -2.806,-4.479 2.041,-1.19 2.012,3.089 7.653,-4.904 1.134,1.645" id="path18472"/></clipPath><clipPath id="clipPath18686"><path d="m 260.957,456.349 -16.922,10.12 -4.422,-7.2 2.551,-1.672 3.43,5.329 14.031,-8.816" id="path18688"/></clipPath><clipPath id="clipPath19134"><path d="m 269.121,469.587 -3.005,1.842 4.848,7.711 29.593,-18.765 -14.173,-23.244 -2.183,1.502 13.096,20.919 -25.114,15.393 -3.062,-5.244" id="path19136"/></clipPath><clipPath id="clipPath21436"><path d="m 287.206,439.2 8.362,-5.301 -6.633,-10.403 35.206,-22.28 -3.996,-6.095 -2.608,1.758 1.53,2.409 -2.976,1.842 -1.559,-2.38 -11.282,7.199 1.701,2.807 -20.607,12.585 7.965,12.132 -6.86,4.507" id="path21438"/></clipPath><clipPath id="clipPath24252"><path d="M 0,0 0,595 839,595 839,0 0,0 z" id="path24254"/></clipPath><clipPath id="clipPath24268"><path d="m 325.984,476.476 7.002,11.423 2.749,-1.701 -6.916,-11.508 -2.863,1.757" id="path24270"/></clipPath><clipPath id="clipPath24516"><path d="M 0,0 0,595 839,595 839,0 0,0 z" id="path24518"/></clipPath><clipPath id="clipPath24530"><path d="m 320.513,467.631 2.636,4.451 2.41,-1.418 -2.608,-4.563 -2.438,1.502" id="path24532"/></clipPath><clipPath id="clipPath24598"><path d="M 0,0 0,595 839,595 839,0 0,0 z" id="path24600"/></clipPath><clipPath id="clipPath24640"><path d="m 326.608,382.365 5.159,7.994 2.692,-1.757 -5.158,-8.022 -2.693,1.785" id="path24642"/></clipPath><clipPath id="clipPath24792"><path d="M 0,0 0,595 839,595 839,0 0,0 z" id="path24794"/></clipPath><clipPath id="clipPath24810"><path d="m 307.049,373.606 9.722,-6.463 1.162,2.013 -9.637,6.321 -1.247,-1.871" id="path24812"/></clipPath><clipPath id="clipPath24958"><path d="M 0,0 0,595 839,595 839,0 0,0 z" id="path24960"/></clipPath><clipPath id="clipPath25260"><path d="m 650.041,106.554 -23.216,-35.2911 -48.557,31.4361 11.537,18.482 3.259,-1.9 -10.374,-16.157 43.965,-28.3747 21.26,33.0517" id="path25262"/></clipPath><clipPath id="clipPath30988"><path d="M 0,0 0,595 839,595 839,0 0,0 z" id="path30990"/></clipPath><clipPath id="clipPath31108"><path d="m 692.759,215.546 -1.247,-1.955 4.025,-2.466 -14.598,-22.451 8.107,-5.499 2.664,3.628 -1.36,0.907 -1.531,-1.955 -4.79,3.401 14.315,22.649 -5.925,3.628" id="path31110"/></clipPath><clipPath id="clipPath32102"><path d="M 0,0 0,595 839,595 839,0 0,0 z" id="path32104"/></clipPath><clipPath id="clipPath32114"><path d="m 672.009,134.249 -20.919,-32.258 -4.734,3.203 1.559,2.579 3.288,-2.211 19.162,29.367" id="path32116"/></clipPath><clipPath id="clipPath33562"><path d="M 0,0 0,595 839,595 839,0 0,0 z" id="path33564"/></clipPath><clipPath id="clipPath33648"><path d="m 344.948,434.466 -21.656,-34.299 -2.07,1.446 22.167,34.781" id="path33650"/></clipPath><clipPath id="clipPath35000"><path d="M 0,0 0,595 839,595 839,0 0,0 z" id="path35002"/></clipPath><clipPath id="clipPath35052"><path d="m 366.378,331.115 2.041,3.543 12.274,-8.249 -0.964,-1.417 1.757,-1.446 -1.105,-1.7 1.814,-1.531 4.223,6.095 1.616,-0.681 -4.252,-6.377 -3.77,-5.67 -7.71,4.451 3.146,4.45 -6.491,3.997 1.389,1.955 -3.969,2.75" id="path35054"/></clipPath><clipPath id="clipPath35858"><path d="M 0,0 0,595 839,595 839,0 0,0 z" id="path35860"/></clipPath><clipPath id="clipPath35900"><path d="m 35.6597,110.608 16.0156,0 0,-7.625 -16.0156,0 0,7.625" id="path35902"/></clipPath><clipPath id="clipPath36196"><path d="M 0,0 0,595 839,595 839,0 0,0 z" id="path36198"/></clipPath><clipPath id="clipPath36296"><path d="m 314.39,399.09 3.147,-2.126 1.445,2.296 -2.948,1.87 -1.389,-2.267" id="path36298"/></clipPath><clipPath id="clipPath36316"><path d="M 0,0 0,595 839,595 839,0 0,0 z" id="path36318"/></clipPath><clipPath id="clipPath36328"><path d="m 317.877,458.532 4.932,7.54 -2.324,1.502 -4.819,-7.681 2.211,-1.389" id="path36330"/></clipPath><clipPath id="clipPath36352"><path d="M 0,0 0,595 839,595 839,0 0,0 z" id="path36354"/></clipPath><clipPath id="clipPath36488"><path d="m 422.816,299.282 -6.973,4.308 -2.211,-3.628 6.944,-4.308 2.24,3.628" id="path36490"/></clipPath><clipPath id="clipPath36516"><path d="M 0,0 0,595 839,595 839,0 0,0 z" id="path36518"/></clipPath><clipPath id="clipPath36534"><path d="m 562.479,350.419 13.209,-9.099 3.401,5.357 -13.861,8.447 -2.75,-4.705" id="path36536"/></clipPath><clipPath id="clipPath36572"><path d="M 0,0 0,595 839,595 839,0 0,0 z" id="path36574"/></clipPath><clipPath id="clipPath36966"><path d="m 453.656,288.142 5.953,9.127 2.721,-1.814 -5.924,-9.156 -2.75,1.843" id="path36968"/></clipPath><clipPath id="clipPath36994"><path d="M 0,0 0,595 839,595 839,0 0,0 z" id="path36996"/></clipPath><clipPath id="clipPath37006"><path d="m 539.008,245.622 -4.592,2.693 1.615,2.636 4.564,-2.693 -1.587,-2.636" id="path37008"/></clipPath><clipPath id="clipPath37026"><path d="M 0,0 0,595 839,595 839,0 0,0 z" id="path37028"/></clipPath><clipPath id="clipPath37954"><path d="m 56.948,65.5652 16.0156,0 0,-7.625 -16.0156,0 0,7.625" id="path37956"/></clipPath><clipPath id="clipPath37992"><path d="M 0,0 0,595 839,595 839,0 0,0 z" id="path37994"/></clipPath></defs><g transform="matrix(1.25,0,0,-1.25,28.20983,748.59745)" id="g10"><g id="g12"><g transform="matrix(2.0166496,0,0,2.0166496,-99.054343,-533.616)" id="g14"/><path d="m 145.21032,598.87796 c 24.12317,0 48.1334,0 72.08515,0 0.17141,-8.74621 0.17141,-17.43596 0,-26.18216 -0.11294,0 -0.22789,0 -0.45577,0 -2.40183,3.029 -7.31842,4.22891 -10.69026,6.40084 -6.00356,3.94457 -21.77981,17.43595 -28.9248,18.1801 -7.14701,-7.48984 -13.43492,-15.7218 -20.75133,-23.03821 -2.97254,-2.91607 -6.40286,-7.65923 -11.31945,-8.51631 0.11495,11.03107 0.11495,22.06416 0,33.15574" id="path6106" style="fill:#45c500;fill-opacity:1;fill-rule:evenodd;stroke:none"/><path d="m 186.37014,526.73433 c -3.31537,0 -6.68922,0 -10.23248,0 1.02849,7.66126 2.11345,16.97818 0.57072,23.49599 -3.88609,1.8291 -9.26046,-0.45778 -13.37644,-2.11547 0.11495,0.3993 0.11495,0.68566 0,1.08698 4.51528,2.80112 14.46341,13.48937 14.46341,20.23506 -5.25942,3.48679 -3.14396,1.48627 -7.5463,-0.51425 -2.51477,-0.28434 -5.20094,-0.68566 -8.00207,-1.08495 0.11293,0.39929 0.11293,0.79859 0,1.08495 4.17245,2.74466 8.51631,7.83267 11.31744,11.8337 1.8291,2.4583 3.08749,6.00155 5.77367,7.43136 0.11495,-0.17142 0.11495,-0.3993 0,-0.57273 8.80267,-2.68618 14.29199,-11.77522 23.0382,-14.40493 0.11293,-0.34283 0.11293,-0.68566 0,-1.08496 -4.17245,0.0565 -9.26045,0.17142 -12.86219,-0.51424 -0.0585,-0.57273 -0.2299,-1.02849 -0.57273,-1.60122 -0.34283,-0.74213 -0.34283,-1.77062 -0.57071,-3.20042 4.40033,-4.45882 9.14551,-10.4039 12.34795,-15.54837 -1.14345,0 -2.40183,0 -3.71669,0 -1.77062,1.31485 -5.20094,1.02849 -7.48782,0.57071 -2.05698,-4.97306 -2.28688,-19.03516 -3.20042,-25.09519" id="path6108" style="fill:#45c500;fill-opacity:1;fill-rule:evenodd;stroke:none"/><path d="m 217.35193,564.63525 c 0.11495,-5.31589 0.11495,-10.69026 -0.0565,-16.00615 -0.22789,0 -0.6292,0 -1.0285,0 -5.94508,5.65872 -11.66026,8.68974 -16.63534,16.00615 6.00357,0 11.89017,0 17.66384,0" id="path6110" style="fill:#45c500;fill-opacity:1;fill-rule:evenodd;stroke:none"/><path d="m 145.21032,557.71814 c 6.80216,-0.0565 11.03309,1.94405 17.60737,2.11546 0.11293,-0.34283 0.11293,-0.74414 0,-1.02849 -5.94508,-4.00103 -9.83318,-11.2045 -17.66383,-13.37643 0.11293,4.0575 0.11293,8.17348 0,12.28946" id="path6112" style="fill:#45c500;fill-opacity:1;fill-rule:evenodd;stroke:none"/><path d="m 195.45918,543.82746 c 8.06055,-0.0565 14.11857,-2.51477 21.83629,-2.68618 0.17141,-4.80164 0.17141,-9.60329 0,-14.40493 -7.54631,0 -15.20554,0 -22.97973,0 0.34283,5.42882 1.19991,10.68824 1.02849,17.09111" id="path6114" style="fill:#45c500;fill-opacity:1;fill-rule:evenodd;stroke:none"/><path d="m 169.27702,526.73433 c -7.77418,0 -15.60483,0 -23.55245,0 -0.79859,2.4583 -0.51223,6.86065 -0.57071,10.17602 0.28636,0 0.51424,0 0.57071,0 0.11495,0.11495 0.11495,0.34283 0,0.51424 5.88862,-1.88556 17.60737,3.60174 24.01023,4.2874 0.11293,-0.3993 0.11293,-0.74414 0,-1.08697 -1.88758,-3.14396 -0.68566,-10.11753 -0.51424,-13.89069" id="path6116" style="fill:#45c500;fill-opacity:1;fill-rule:evenodd;stroke:none"/><path d="m -22.510793,522.96118 c 11.833095,0 23.5518455,0 35.156051,0 0.114142,-0.34081 0.114142,-0.68566 0,-1.08495 -3.5440603,-2.68618 -2.6867826,-9.08904 -4.2873974,-10.11754 -3.029411,-2.28688 -8.46004677,-2.00051 -12.2327949,-3.77315 -2.5149637,-1.1999 -11.9472377,-12.57582 -12.2904707,-16.00615 0.514044,-0.51424 0.228486,-0.11293 0.514044,-1.08495 1.829101,-1.02849 2.057386,-1.88759 4.801239,-2.059 6.6880168,5.66073 9.88924642,12.51936 20.8075891,13.83421 0.1714149,-0.34283 0.1714149,-0.68566 0,-1.02849 C 7.2136136,497.6966 8.1283659,490.77949 5.156026,486.60704 1.6692388,483.2352 -3.0753327,481.1762 -6.5621199,477.57447 c -5.7732641,2.11546 -8.0603471,9.49035 -16.0057441,8.00408 0.114142,12.51734 0.114142,24.92377 0,37.38465" id="path8152" style="fill:#0c73ff;fill-opacity:1;fill-rule:evenodd;stroke:none"/><path d="m 49.574145,522.96118 c 0.05707,-5.14447 0.05707,-10.28894 -0.05707,-15.54837 -7.945599,0.11495 -11.318647,-4.57174 -17.606359,-6.34438 -2.457893,3.31538 -6.573875,5.02953 -9.66076,8.00207 0.285557,0 0.514044,0 0.571518,0 1.20031,1.25839 2.229406,2.51476 3.200827,3.77315 0.228486,5.03154 -0.971421,6.97358 -2.172335,10.11753 8.688936,0 17.26373,0 25.667109,0" id="path8154" style="fill:#0c73ff;fill-opacity:1;fill-rule:evenodd;stroke:none"/><path d="m 49.574145,450.87806 c -11.375718,0 -22.751437,0 -34.241702,0 0.114143,0.34283 0.114143,0.74213 0,1.02849 3.715274,2.45628 11.718348,12.86219 11.718348,18.74879 -2.114659,1.71617 -12.118653,14.34846 -12.804515,17.03464 1.485867,4.2874 3.029411,8.5748 4.287397,12.80573 0.514044,0 0.800005,0 1.086167,0 2.172134,-2.91608 9.203384,-8.86116 13.891086,-9.03258 3.772748,3.43032 10.918141,6.63075 16.005543,8.00207 0.114344,-16.17756 0.114344,-32.41159 0,-48.58916" id="path8156" style="fill:#0c73ff;fill-opacity:1;fill-rule:evenodd;stroke:none"/><path d="m -22.510793,450.87806 c 0.05707,9.26045 0.05707,18.52091 -0.05707,27.78136 0.285557,0 0.399699,0 0.456972,0 2.343549,-3.14395 12.2327952,-10.63177 17.1493869,-10.69026 3.6580008,4.51528 10.0604599,6.97358 13.8908842,11.20451 0.4569728,0 0.8002066,0 1.028693,0 1.2003099,-3.25891 5.2586159,-7.9456 7.4884249,-10.11753 -0.171213,-0.97203 0.05727,-0.57273 -0.571518,-1.08698 -1.371725,-4.74316 -6.116499,-8.06054 -8.9744945,-11.77521 -0.8572778,-1.25839 -1.8861724,-4.63023 -3.2583008,-5.31589 -8.9744941,0 -18.0637357,0 -27.2100477,0" id="path8158" style="fill:#0c73ff;fill-opacity:1;fill-rule:evenodd;stroke:none"/><path d="m 27.279681,530.10819 -0.05707,22.69336 -3.543858,0 0,9.54682 3.543858,0 0,8.06054 9.374799,0 0,-8.06054 3.60093,0 0,-9.54682 -3.60093,0 0.05707,-22.69336 -9.431871,0" id="path37482" style="fill:#000000;fill-opacity:1;fill-rule:evenodd;stroke:none"/><path d="m 42.199661,530.10819 -0.05707,46.93147 9.317728,0 0,-18.06313 0.114142,0 c 0.97142,1.31485 1.943445,2.34335 2.915269,3.02901 1.143238,0.62919 2.400619,0.97202 3.772748,0.97202 1.086167,0 2.057587,-0.2299 2.915269,-0.57273 0.914348,-0.39929 1.657686,-0.97202 2.172133,-1.65768 0.685862,-0.68566 1.143238,-1.71416 1.428796,-2.80113 0.399902,-1.14344 0.57172,-2.4583 0.514044,-3.94457 l -0.05707,-23.89326 -9.317728,0 0,18.69232 c 0.114344,2.74466 -0.62859,4.17245 -2.172133,4.17245 -0.685863,0 -1.20031,-0.39929 -1.714959,-1.02849 -0.228285,-0.68566 -0.456771,-1.71415 -0.513842,-3.14396 l 0,-18.69232 -9.374799,0" id="path37484" style="fill:#000000;fill-opacity:1;fill-rule:evenodd;stroke:none"/><path d="m 91.933064,562.34837 -0.05707,-32.24018 -9.203384,0 0,3.31537 -0.171415,0 c -0.685863,-1.31485 -1.60001,-2.28688 -2.743854,-2.97254 -1.085966,-0.68566 -2.343548,-1.02849 -3.772748,-1.02849 -2.057588,0 -3.830021,0.80061 -5.144675,2.28688 -1.20031,1.48627 -1.828899,3.71467 -1.886172,6.68721 l -0.05707,23.95175 9.317727,0 0,-18.69233 c 0.114143,-1.4298 0.228487,-2.45829 0.514044,-3.14396 0.456772,-0.68566 1.028492,-1.08495 1.714758,-1.08495 1.600211,0 2.343548,1.48425 2.286477,4.22891 l 0,18.69233 9.146313,0" id="path37486" style="fill:#000000;fill-opacity:1;fill-rule:evenodd;stroke:none"/><path d="m 95.648942,530.10819 -0.05727,32.24018 9.317928,0 0,-3.25891 0.11495,0 c 1.5992,2.62971 3.14194,3.8881 4.74316,3.8881 0.68566,0 1.25839,-0.17141 1.71415,-0.34283 l -0.0565,-10.17601 c -0.57071,0.28636 -1.42778,0.57273 -2.28688,0.57273 -2.74264,0 -4.11396,-2.17395 -4.17244,-6.28792 l 0,-16.63534 -9.374398,0" id="path37488" style="fill:#000000;fill-opacity:1;fill-rule:evenodd;stroke:none"/><path d="m 137.66604,539.13875 0,-10.11754 c 0.11293,-2.05698 -0.17142,-3.94255 -0.80061,-5.54376 -0.51425,-1.65769 -1.25839,-3.0875 -2.34335,-4.2874 -1.02849,-1.19991 -2.34334,-2.11547 -3.8881,-2.80113 -1.37132,-0.68566 -3.08547,-1.08697 -4.91659,-1.08697 -1.31284,0 -2.85759,0.2299 -4.51528,0.62919 -1.54274,0.3993 -2.97254,0.91556 -4.17245,1.65769 l -0.0565,9.26045 c 2.51476,-1.37132 4.57174,-2.00051 6.22943,-2.00051 2.059,0 3.54527,0.57273 4.17446,1.77263 0.74213,1.25637 1.08496,2.62971 1.02849,4.2874 l -0.0585,3.54325 -0.11293,0 c -0.34283,-1.31485 -1.14344,-2.34334 -2.28688,-3.14395 -1.02849,-0.7986 -2.4583,-1.19991 -4.17245,-1.19991 -1.65769,0 -3.03102,0.3993 -4.2874,1.25839 -1.08697,0.85707 -2.00051,2.05698 -2.74466,3.54325 -0.51424,1.19991 -0.91354,2.62971 -1.25637,4.22892" id="path37490" style="fill:#000000;fill-opacity:1;fill-rule:evenodd;stroke:none"/><path d="m 125.25961,539.13875 -11.83168,0 c -0.0585,0.34283 -0.11495,0.68767 -0.17142,1.02849 -0.17141,2.00051 -0.28636,4.05951 -0.34283,6.40286 0.0565,4.57376 0.74213,8.45984 2.11345,11.6038 1.48627,3.20042 3.8881,4.80164 7.08852,4.80164 1.14344,0 2.11547,-0.28636 2.91608,-0.80061 0.0565,-0.0565 0.17141,-0.11293 0.22788,-0.17141 l 0,-10.05905 c -1.42779,-0.34283 -2.2284,-2.28688 -2.2284,-5.66073 l -0.0585,0 c 0.11495,-1.54274 0.28636,-2.79911 0.62919,-3.77114 0.28637,-0.80061 0.85708,-1.31485 1.65769,-1.4298" id="path37492" style="fill:#000000;fill-opacity:1;fill-rule:evenodd;stroke:none"/><path d="m 125.25961,562.12049 c 0.85708,-0.45778 1.60122,-1.08698 2.00052,-1.94406 0.74414,-0.80061 1.02849,-1.5992 1.02849,-2.57122 l 0.11495,0 -0.0565,4.74316 9.31692,0 0,-23.20761 -12.40441,0 0,2.00052 c 0.11495,0 0.28636,-0.0585 0.45778,-0.0585 1.8291,0 2.74264,1.77263 2.68618,5.20295 0.0565,1.8291 -0.11495,3.20043 -0.51425,4.22892 -0.22788,0.97202 -0.91354,1.48627 -2.11546,1.48627 -0.17142,0 -0.34283,0 -0.51425,-0.0565" id="path37494" style="fill:#000000;fill-opacity:1;fill-rule:evenodd;stroke:none"/><path d="m 82.843822,495.29477 c 0,-0.0585 0,-0.0585 -0.05707,-0.0585 l 0,0 c 0.05707,-3.14194 -0.3997,-5.8866 -1.314452,-8.40136 -0.742934,-2.51476 -2.172335,-4.51729 -4.115579,-6.06003 -1.829101,-1.48627 -4.287397,-2.2284 -7.259737,-2.2284 -2.915067,0 -5.315686,0.74213 -7.259535,2.2284 -1.829101,1.54274 -3.200826,3.54325 -4.058507,6.06003 -0.857076,2.51476 -1.20031,5.25741 -1.257381,8.40136 0.05707,0 0.05707,0 0.05707,0.0585 l 9.546214,0 c 0,0 0,-0.0585 -0.05727,-0.0585 0.05727,-4.51527 1.086168,-6.74367 3.029411,-6.74367 2.057588,0 3.086684,2.2284 2.97234,6.74367 l -0.05707,0 c 0.05707,0 0.05707,0.0585 0.05707,0.0585" id="path37496" style="fill:#000000;fill-opacity:1;fill-rule:evenodd;stroke:none"/><path d="m 57.520148,495.29477 c 0.05707,3.14395 0.3997,5.8866 1.257381,8.34489 0.914349,2.51477 2.286477,4.57376 4.115579,6.1165 1.943243,1.54274 4.344468,2.28688 7.202464,2.28688 2.915268,0 5.315888,-0.74213 7.202464,-2.28688 1.943445,-1.54274 3.429716,-3.59972 4.17265,-6.1165 0.857277,-2.45829 1.314653,-5.20094 1.314653,-8.34489 l -9.775104,0 c 0.114344,4.51528 -0.914147,6.74367 -2.915067,6.74367 -1.943445,0 -2.972339,-2.22839 -3.029411,-6.74367" id="path37498" style="fill:#000000;fill-opacity:1;fill-rule:evenodd;stroke:none"/><path d="m 85.873838,479.17367 -0.05707,32.18371 9.203384,0 0,-3.14396 0.114142,0 c 1.657686,2.57325 3.258301,3.82962 4.74437,3.82962 0.742936,0 1.314456,-0.11293 1.828896,-0.34081 l -0.0571,-10.17602 c -0.62859,0.3993 -1.48587,0.51425 -2.400617,0.51425 -2.629106,0 -4.115579,-2.059 -4.17265,-6.28791 l 0,-16.57888 -9.260455,0" id="path37500" style="fill:#000000;fill-opacity:1;fill-rule:evenodd;stroke:none"/><path d="m 112.91368,502.61117 0,-23.4375 -9.3754,0 0,23.4375" id="path37502" style="fill:#000000;fill-opacity:1;fill-rule:evenodd;stroke:none"/><path d="m 103.53828,502.61117 9.31764,0 0,5.83036 -9.31764,0 0,-5.83036 z" id="path37504" style="fill:#000000;fill-opacity:1;fill-rule:evenodd;stroke:none"/><path d="m 103.53828,508.44332 4.63002,0 0,2.91519 -4.63002,0 0,-2.91519 z" id="path37506" style="fill:#000000;fill-opacity:1;fill-rule:evenodd;stroke:none"/><path d="m 108.1685,513.18648 c -0.85707,0 -1.77263,0.28637 -2.57324,0.85708 -0.11293,0.0565 -0.22788,0.17141 -0.34081,0.28636 l 2.91405,0" id="path37508" style="fill:#000000;fill-opacity:1;fill-rule:evenodd;stroke:none"/><path d="m 108.1685,508.44332 4.68714,0 0,2.91519 -4.68714,0 0,-2.91519 z" id="path37510" style="fill:#000000;fill-opacity:1;fill-rule:evenodd;stroke:none"/><path d="m 108.1685,514.32992 3.14396,0 c -0.11495,-0.11293 -0.28636,-0.22788 -0.45778,-0.28435 -0.74213,-0.57272 -1.65768,-0.85707 -2.62971,-0.85707 0,0 0,0.0565 -0.0565,0.0565" id="path37512" style="fill:#000000;fill-opacity:1;fill-rule:evenodd;stroke:none"/><path d="m 105.19596,514.32992 c -0.57273,0.57273 -1.14344,1.25839 -1.54273,2.05699 -0.40132,0.97202 -0.6292,2.11546 -0.68566,3.2589 l 0,0 c 0.0565,1.19991 0.28434,2.17193 0.68566,3.20042 0.51223,0.97203 1.1999,1.82911 1.94203,2.40183 0.85708,0.6292 1.77263,0.85708 2.62971,0.85708 1.54274,0 2.80113,-0.6292 3.71467,-1.88557 1.14344,-1.25839 1.65769,-2.80112 1.60122,-4.57376 0.0565,-1.14344 -0.2299,-2.28688 -0.68566,-3.2589 -0.40131,-0.7986 -0.97203,-1.48628 -1.65769,-2.05699" id="path37514" style="fill:#000000;fill-opacity:1;fill-rule:evenodd;stroke:none"/><path d="m 138.52311,495.29477 c 0,-0.57273 -0.0565,-1.08698 -0.17141,-1.60122 l -12.80371,0 c 0.11293,-1.88557 0.45576,-3.37184 1.19991,-4.2874 0.79859,-0.97001 1.65768,-1.37132 2.74264,-1.37132 1.25839,0 2.34335,0.17141 3.37386,0.68566 1.14344,0.51424 2.39981,1.19991 3.71466,2.11546 l 0,0 -0.0565,-9.94611 c -0.97203,-0.68566 -2.40183,-1.31486 -4.00103,-1.65769 -1.65769,-0.45778 -3.25891,-0.68566 -5.03155,-0.68566 -2.00051,0 -3.82961,0.3993 -5.37235,1.25637 -1.37334,0.85708 -2.62971,2.05699 -3.54527,3.60174 -0.85708,1.5992 -1.54274,3.42831 -2.00052,5.54377 -0.28434,2.00052 -0.45576,4.05952 -0.57071,6.3464" id="path37516" style="fill:#000000;fill-opacity:1;fill-rule:evenodd;stroke:none"/><path d="m 127.26013,495.29477 -11.31744,0 c 0,0.22788 0,0.39929 0,0.57071 0.11293,3.54527 0.57071,6.45933 1.48627,8.80267 1.02849,2.4583 2.45628,4.2874 4.11396,5.54579 1.77264,1.14344 3.60174,1.77264 5.71721,1.77264 l 0,-8.86116 c -0.3993,-0.17142 -0.68566,-0.45577 -0.91355,-0.80061 -0.34283,-0.68566 -0.57272,-1.65769 -0.74414,-3.20043 l -0.0565,0 1.71416,0" id="path37518" style="fill:#000000;fill-opacity:1;fill-rule:evenodd;stroke:none"/><path d="m 127.26013,512.04304 c 0.11495,0 0.17141,0 0.22989,0 3.20043,0 5.83014,-1.02849 7.88712,-3.08547 2.23042,-2.17193 3.20042,-5.54579 3.14396,-10.34743 0,-1.19991 0,-2.34335 -0.0565,-3.31537 l -11.2045,0 0,3.82961 3.37385,0 c 0.11293,2.8576 -0.68768,4.2874 -2.28688,4.2874 -0.40131,0 -0.74414,-0.0565 -1.08697,-0.22788" id="path37520" style="fill:#000000;fill-opacity:1;fill-rule:evenodd;stroke:none"/><path d="m 141.32424,479.17367 -0.0585,32.18371 9.26045,0 0,-3.31537 0.17142,0 c 0.91556,1.4298 1.88758,2.39981 2.85961,3.02901 1.14344,0.62919 2.39981,0.97202 3.77315,0.97202 1.08496,0 2.05698,-0.22788 2.91406,-0.57273 0.91354,-0.39929 1.65768,-0.97001 2.23041,-1.65768 0.57071,-0.74213 1.08496,-1.59921 1.31284,-2.79911 0.45778,-1.14344 0.6292,-2.4583 0.57273,-3.8881 l -0.0565,-23.95175 -9.31893,0 0,18.69233 c 0.17141,2.80112 -0.6292,4.11598 -2.17194,4.11598 -0.68566,0 -1.25637,-0.34283 -1.71415,-1.02849 -0.2299,-0.6292 -0.40131,-1.71416 -0.51424,-3.08548 l 0,-18.69434 -9.31894,0" id="path37522" style="fill:#000000;fill-opacity:1;fill-rule:evenodd;stroke:none"/><path d="m 169.84975,479.23014 -0.0585,22.69537 -3.59972,0 0,9.48834 3.59972,0 0,8.11701 9.31893,0 0,-8.11701 3.71467,0 0,-9.48834 -3.71467,0 0.0565,-22.69537 -9.3754,0" id="path37524" style="fill:#000000;fill-opacity:1;fill-rule:evenodd;stroke:none"/><path d="m 209.12198,495.29477 0,-16.1211 -9.26045,0 0.0565,0 -0.0565,3.20042 -0.17142,0 c -0.45778,-1.1999 -1.4298,-2.11345 -2.62971,-2.85759 -1.08697,-0.68566 -2.39981,-0.97202 -3.94456,-0.97202 -2.97255,0 -5.14448,1.31485 -6.7457,4.00103 -1.37132,2.74466 -2.11345,6.57428 -2.17193,11.49087 0.0585,0.39929 0.0585,0.85707 0.0585,1.25839 l 10.174,0 c 0,-0.0585 0,-0.0585 -0.0565,-0.0585 0.0565,-1.88556 0.22788,-3.31537 0.62919,-4.28739 0.51425,-0.97001 1.25637,-1.48627 2.34335,-1.48627 l -0.11495,0 c 1.1999,0 1.88557,0.51424 2.17193,1.54475 0.34283,1.02849 0.57273,2.39981 0.51425,4.22891 0.0585,0 0.0585,0.0565 0.0585,0.0565" id="path37526" style="fill:#000000;fill-opacity:1;fill-rule:evenodd;stroke:none"/><path d="m 184.19821,495.29477 c 0.22788,11.14602 3.37184,16.74827 9.43187,16.74827 1.59921,0 2.85759,-0.45576 3.88609,-1.25637 1.14344,-0.97203 1.88556,-2.17193 2.23041,-3.77315 l 0.11293,0 0,4.34386 9.20399,0 0,-16.06261 -9.14752,0 c 0,1.8291 -0.22788,3.20042 -0.45576,4.17244 -0.34283,1.0285 -0.97203,1.59921 -2.00052,1.59921 -1.14344,0 -1.94405,-0.62718 -2.4583,-1.65769 -0.39929,-1.08496 -0.57071,-2.45628 -0.62919,-4.11396" id="path37528" style="fill:#000000;fill-opacity:1;fill-rule:evenodd;stroke:none"/></g></g><script xmlns=""/></svg>